<svg width="50" height="51" viewBox="0 0 50 51" fill="none" xmlns="http://www.w3.org/2000/svg">
<path d="M22.9167 12.3001V40.1293C22.9167 42.1541 21.2752 43.7956 19.2504 43.7956C17.7009 43.7956 16.3188 42.8216 15.7977 41.3624L11.326 28.5516M37.5 27.1289C40.9518 27.1289 43.75 24.3307 43.75 20.8789C43.75 17.4271 40.9518 14.6289 37.5 14.6289M11.326 28.5516C8.34229 27.2833 6.25 24.3254 6.25 20.8789C6.25 16.2766 9.98095 12.5456 14.5833 12.5456H18.4002C26.9432 12.5456 34.2852 9.97456 37.5 6.29559L37.5 35.4623C34.2852 31.7833 26.9432 29.2123 18.4002 29.2123L14.5833 29.2122C13.4275 29.2122 12.3266 28.9769 11.326 28.5516Z" stroke="url(#paint0_linear_19_96)" stroke-width="3" stroke-linecap="round" stroke-linejoin="round"/>
<defs>
<linearGradient id="paint0_linear_19_96" x1="39.6949" y1="25.0456" x2="6.25" y2="25.0456" gradientUnits="userSpaceOnUse">
<stop stop-color="#47D16E"/>
<stop offset="1" stop-color="#59EBFF"/>
</linearGradient>
</defs>
</svg>
