<svg width="50" height="51" viewBox="0 0 50 51" fill="none" xmlns="http://www.w3.org/2000/svg">
<path d="M39.5833 22.9623H10.4167M39.5833 22.9623C41.8845 22.9623 43.75 24.8277 43.75 27.1289V39.6289C43.75 41.9301 41.8845 43.7956 39.5833 43.7956H10.4167C8.11548 43.7956 6.25 41.9301 6.25 39.6289V27.1289C6.25 24.8277 8.11548 22.9623 10.4167 22.9623M39.5833 22.9623V18.7956C39.5833 16.4944 37.7179 14.6289 35.4167 14.6289M10.4167 22.9623V18.7956C10.4167 16.4944 12.2821 14.6289 14.5833 14.6289M14.5833 14.6289V10.4623C14.5833 8.16107 16.4488 6.29559 18.75 6.29559H31.25C33.5512 6.29559 35.4167 8.16107 35.4167 10.4623V14.6289M14.5833 14.6289H35.4167" stroke="url(#paint0_linear_19_92)" stroke-width="3" stroke-linecap="round" stroke-linejoin="round"/>
<defs>
<linearGradient id="paint0_linear_19_92" x1="39.6949" y1="25.0456" x2="6.25" y2="25.0456" gradientUnits="userSpaceOnUse">
<stop stop-color="#47D16E"/>
<stop offset="1" stop-color="#59EBFF"/>
</linearGradient>
</defs>
</svg>
