<svg width="141" height="34" viewBox="0 0 141 34" fill="none" xmlns="http://www.w3.org/2000/svg">
<path d="M14.9689 7.22949C15.8939 7.22949 16.7484 7.2995 17.5325 7.50952C18.3165 7.64954 18.9596 7.93832 19.5323 8.28837C20.1049 8.63841 20.5277 9.13721 20.8184 9.77604C21.1003 10.4149 21.2501 11.1937 21.2501 12.0426C21.2501 13.0314 21.0387 13.8803 20.5365 14.5191C20.1049 15.1579 19.4001 15.7267 18.5368 16.1468C19.7525 16.4968 20.6775 17.1356 21.2413 17.9845C21.8051 18.8333 22.1663 19.8922 22.1663 21.0999C22.1663 22.0887 21.9549 22.9376 21.5937 23.6464C21.2413 24.3552 20.6687 24.9941 20.0256 25.4141C19.3825 25.8429 18.5984 26.193 17.7439 26.403C16.8894 26.613 16.0349 26.753 15.1804 26.753L5.63086 26.7705V7.22949H14.9689ZM14.3963 15.1579C15.1804 15.1579 15.8235 14.9479 16.3168 14.5891C16.8101 14.2303 17.0304 13.6002 17.0304 12.8214C17.0304 12.3926 16.9599 11.9725 16.8189 11.6925C16.678 11.4125 16.4665 11.1937 16.1758 10.9837C15.8939 10.8437 15.6032 10.7036 15.2508 10.6336C14.8985 10.5636 14.5373 10.5636 14.1144 10.5636H9.98275V15.1667C9.98275 15.1579 14.3963 15.1579 14.3963 15.1579ZM14.6077 23.5151C15.0394 23.5151 15.4623 23.4451 15.8235 23.3751C16.1758 23.3051 16.537 23.1651 16.8189 22.9463C17.1008 22.7276 17.3211 22.5175 17.5325 22.1675C17.6734 21.8174 17.8144 21.3886 17.8144 20.8898C17.8144 19.901 17.5325 19.1921 16.9599 18.6933C16.3873 18.2645 15.6032 18.0545 14.6782 18.0545H9.98275V23.5064H14.6077V23.5151Z" fill="white"/>
<path d="M27.9498 22.9551C28.5224 23.524 29.377 23.804 30.5134 23.804C31.2974 23.804 32.011 23.594 32.5836 23.2352C33.1562 22.8064 33.5086 22.3863 33.6496 21.9575H37.1381C36.5655 23.6552 35.711 24.8629 34.5746 25.6417C33.4381 26.3505 32.0815 26.7706 30.4429 26.7706C29.3065 26.7706 28.3022 26.5606 27.3772 26.2018C26.4522 25.8517 25.7386 25.3529 25.0955 24.6441C24.4524 24.0053 23.9591 23.2264 23.6684 22.3076C23.316 21.3887 23.1663 20.3998 23.1663 19.2622C23.1663 18.2033 23.3072 17.2057 23.6684 16.2869C24.0296 15.368 24.5229 14.5892 25.166 13.8803C25.8091 13.2415 26.5932 12.6727 27.4477 12.3227C28.3727 11.9726 29.2977 11.7538 30.4429 11.7538C31.6586 11.7538 32.7246 11.9639 33.6496 12.4627C34.5746 12.9615 35.2881 13.5215 35.8607 14.3704C36.4334 15.1492 36.8562 16.0681 37.1469 17.057C37.2879 18.0458 37.3584 19.0434 37.2879 20.1723H26.9543C26.9543 21.3275 27.3772 22.3863 27.9498 22.9551ZM32.4427 15.5168C31.9405 15.018 31.1565 14.7379 30.2315 14.7379C29.5884 14.7379 29.0951 14.8779 28.6634 15.088C28.2317 15.298 27.9498 15.5868 27.6679 15.8668C27.386 16.1468 27.2362 16.5056 27.1658 16.8557C27.0953 17.2057 27.0248 17.4945 27.0248 17.7745H33.4381C33.2972 16.7244 32.936 16.0156 32.4427 15.5168ZM26.1703 8.08716H34.1517V9.99488H26.1703V8.08716Z" fill="white"/>
<path d="M86.3863 7.16121V26.8391C86.3863 27.289 86.2075 27.7205 85.8894 28.0386C85.5713 28.3567 85.1398 28.5354 84.6899 28.5354H65.012C64.5621 28.5354 64.1307 28.3567 63.8125 28.0386C63.4944 27.7205 63.3157 27.289 63.3157 26.8391V7.16121C63.3157 6.71131 63.4944 6.27983 63.8125 5.9617C64.1307 5.64357 64.5621 5.46484 65.012 5.46484H84.6899C85.1398 5.46484 85.5713 5.64357 85.8894 5.9617C86.2075 6.27983 86.3863 6.71131 86.3863 7.16121ZM70.1011 14.286H66.7084V25.1427H70.1011V14.286ZM70.4065 10.5539C70.4083 10.2973 70.3595 10.0428 70.2629 9.80506C70.1664 9.56728 70.0239 9.35085 69.8437 9.16812C69.6635 8.98539 69.4491 8.83995 69.2127 8.7401C68.9762 8.64024 68.7225 8.58794 68.4658 8.58616H68.4048C67.8829 8.58616 67.3824 8.79348 67.0133 9.16251C66.6443 9.53154 66.437 10.0321 66.437 10.5539C66.437 11.0758 66.6443 11.5763 67.0133 11.9454C67.3824 12.3144 67.8829 12.5217 68.4048 12.5217C68.6614 12.528 68.9168 12.4837 69.1563 12.3913C69.3958 12.2989 69.6148 12.1602 69.8007 11.9831C69.9866 11.806 70.1358 11.5941 70.2397 11.3593C70.3437 11.1246 70.4003 10.8717 70.4065 10.615V10.5539ZM82.9935 18.5472C82.9935 15.2834 80.9172 14.0145 78.8544 14.0145C78.179 13.9807 77.5065 14.1246 76.9041 14.4317C76.3016 14.7389 75.7903 15.1987 75.421 15.7652H75.326V14.286H72.1368V25.1427H75.5295V19.3683C75.4805 18.7769 75.6668 18.19 76.0479 17.7352C76.4291 17.2803 76.9743 16.9942 77.5652 16.9391H77.6941C78.773 16.9391 79.5737 17.6176 79.5737 19.3276V25.1427H82.9664L82.9935 18.5472Z" fill="white"/>
<path d="M123.921 16.9998C123.921 15.9389 124.343 14.9215 125.093 14.1713C125.843 13.4212 126.86 12.9998 127.921 12.9998C128.982 12.9998 129.999 13.4212 130.75 14.1713C131.5 14.9215 131.921 15.9389 131.921 16.9998C131.921 18.0607 131.5 19.0781 130.75 19.8283C129.999 20.5784 128.982 20.9998 127.921 20.9998C126.86 20.9998 125.843 20.5784 125.093 19.8283C124.343 19.0781 123.921 18.0607 123.921 16.9998V16.9998Z" stroke="white" stroke-width="1.12001"/>
<path d="M115.921 25C115.921 23.9392 116.343 22.9217 117.093 22.1716C117.843 21.4214 118.86 21 119.921 21H123.921V25C123.921 26.0609 123.5 27.0783 122.75 27.8285C121.999 28.5787 120.982 29.0001 119.921 29.0001C118.86 29.0001 117.843 28.5787 117.093 27.8285C116.343 27.0783 115.921 26.0609 115.921 25Z" stroke="white" stroke-width="1.12001"/>
<path d="M123.921 5V13.0001H127.921C128.982 13.0001 129.999 12.5787 130.75 11.8285C131.5 11.0783 131.921 10.0609 131.921 9.00004C131.921 7.93916 131.5 6.92174 130.75 6.17158C129.999 5.42143 128.982 5 127.921 5H123.921Z" stroke="white" stroke-width="1.12001"/>
<path d="M115.921 9.00004C115.921 10.0609 116.343 11.0783 117.093 11.8285C117.843 12.5787 118.86 13.0001 119.921 13.0001H123.921V5H119.921C118.86 5 117.843 5.42143 117.093 6.17158C116.343 6.92174 115.921 7.93916 115.921 9.00004Z" stroke="white" stroke-width="1.12001"/>
<path d="M115.921 16.9998C115.921 18.0607 116.343 19.0781 117.093 19.8283C117.843 20.5784 118.86 20.9998 119.921 20.9998H123.921V12.9998H119.921C118.86 12.9998 117.843 13.4212 117.093 14.1713C116.343 14.9215 115.921 15.9389 115.921 16.9998Z" stroke="white" stroke-width="1.12001"/>
</svg>
