<svg width="70" height="73" viewBox="0 0 70 73" fill="none" xmlns="http://www.w3.org/2000/svg">
<path d="M12.3841 13.1197C14.6116 14.9355 15.4554 14.8072 19.6606 14.526L59.3056 12.1477C60.1494 12.1477 59.4474 11.304 59.1639 11.1622L52.5781 6.40346C51.3249 5.41796 49.6374 4.30646 46.4131 4.57421L8.03487 7.38671C6.62862 7.51496 6.34737 8.21921 6.90987 8.78171L12.3841 13.1197ZM14.7624 22.3672V64.0732C14.7624 66.312 15.8761 67.1557 18.3961 67.014L61.9674 64.494C64.4874 64.3522 64.7799 62.8177 64.7799 60.9907V19.566C64.7799 17.7367 64.0756 16.7647 62.5299 16.9065L17.0034 19.566C15.3159 19.7077 14.7646 20.538 14.7646 22.356L14.7624 22.3672ZM57.7711 24.5925C58.0524 25.8592 57.7711 27.1125 56.5044 27.2655L54.4074 27.6885V58.473C52.5781 59.4585 50.9041 60.021 49.5091 60.021C47.2591 60.021 46.6966 59.3167 45.0204 57.2197L31.2864 35.658V56.5177L35.6334 57.5032C35.6334 57.5032 35.6334 60.0232 32.1301 60.0232L22.4619 60.5857C22.1806 60.0232 22.4619 58.617 23.4474 58.347L25.9674 57.6427V30.069L22.4641 29.7877C22.1829 28.521 22.8871 26.7052 24.8424 26.5657L35.2126 25.8615L49.5091 47.7045V28.3792L45.8641 27.9562C45.5829 26.4217 46.6966 25.2967 48.1029 25.1662L57.7711 24.5925ZM4.81287 3.60446L44.7391 0.663709C49.6374 0.240709 50.9041 0.521959 53.9844 2.76071L66.7351 11.7247C68.8321 13.2592 69.5364 13.6822 69.5364 15.3585V64.4962C69.5364 67.5787 68.4114 69.3945 64.4964 69.6757L18.1126 72.477C15.1831 72.6187 13.7769 72.1957 12.2289 70.2382L2.84187 58.05C1.16562 55.8112 0.463623 54.135 0.463623 52.1797V8.50496C0.463623 5.98496 1.58862 3.88796 4.81062 3.60671L4.81287 3.60446Z" fill="white"/>
</svg>
