<svg width="70" height="71" viewBox="0 0 70 71" fill="none" xmlns="http://www.w3.org/2000/svg">
<path d="M56.7932 15.7165V13.7165H54.7932H48.5837C45.0785 13.7165 41.7168 12.3241 39.2382 9.84548C37.236 7.8433 35.9426 5.26487 35.5193 2.5H67.0756C67.586 2.5 67.9998 2.91387 67.9998 3.42421V34.7669C61.6571 33.7991 56.7975 28.3229 56.7932 21.7106V15.7165Z" stroke="white" stroke-width="4"/>
<path d="M51.3214 20.2204V51.5635C44.9777 50.6006 40.114 45.1281 40.1048 38.516C40.1048 38.5155 40.1048 38.5151 40.1048 38.5146L40.1048 32.5026V30.5026H38.1048H31.8967C25.2841 30.4982 19.8081 25.6385 18.8405 19.2957H48.3969V19.2959H50.3969C50.9074 19.2959 51.3214 19.7099 51.3214 20.2204Z" stroke="white" stroke-width="4"/>
<path d="M23.4455 49.2983V47.2983H21.4455H15.2165C8.59731 47.2983 3.11433 42.432 2.15035 36.0818H33.7084C34.2189 36.0818 34.6329 36.4958 34.6329 37.0063V68.3452C28.2987 67.3693 23.4498 61.8968 23.4455 55.2921V49.2983Z" stroke="white" stroke-width="4"/>
</svg>
