<svg width="76" height="77" viewBox="0 0 76 77" fill="none" xmlns="http://www.w3.org/2000/svg">
<path d="M60.7222 45.0822H40.8531V36.6742H72.8796C72.9396 37.0612 72.9984 37.4907 73.0586 37.9726C73.2012 39.1129 73.25 40.165 73.25 41.2918C73.25 46.0031 72.5564 50.2204 71.1935 54.0657C69.8435 57.8746 67.7703 61.2097 65.0475 64.1778C61.9964 67.4201 58.3588 69.8988 54.0532 71.7091C49.7963 73.4989 44.8474 74.3963 39.215 74.3963C34.1826 74.3963 29.4798 73.5094 25.0858 71.703C20.6576 69.8825 16.7878 67.382 13.4598 64.2021C10.1921 61.0307 7.59513 57.2646 5.62454 52.88C3.68886 48.5731 2.75 43.7407 2.75 38.5C2.75 33.2779 3.73385 28.4836 5.63542 24.0954C7.55098 19.6749 10.1412 15.9184 13.4543 12.7514L13.4597 12.7463L13.465 12.7412C16.7266 9.57692 20.5875 7.12604 25.0786 5.29998C29.5311 3.48962 34.2371 2.60376 39.215 2.60376C44.9835 2.60376 50.0203 3.5981 54.3187 5.53C58.069 7.21553 61.374 9.43836 64.2445 12.2009L56.9421 19.2797C54.8097 17.3514 52.5193 15.809 50.098 14.6669C47.0075 13.2091 43.2268 12.5628 39.0599 12.5628C35.6142 12.5628 32.3104 13.1749 29.2178 14.412C26.1428 15.642 23.4398 17.3836 21.1276 19.6372C18.7437 21.9101 16.8903 24.6759 15.5542 27.8492C14.1979 31.0704 13.5363 34.5957 13.5363 38.4483C13.5363 42.3009 14.1979 45.8262 15.5542 49.0475C16.8972 52.2371 18.7575 54.9504 21.1365 57.2162C23.4864 59.4542 26.2342 61.2498 29.3212 62.4846C32.4194 63.7239 35.7757 64.3338 39.2667 64.3338C42.8997 64.3338 46.2044 63.8471 49.0763 62.7558C51.8748 61.6924 54.3105 60.2254 56.3639 58.4001L56.3754 58.3899L56.3867 58.3796C57.78 57.1024 59.0391 55.5514 60.1154 53.7386L60.1223 53.7271L60.129 53.7155C61.1999 51.8554 62.0392 49.8361 62.6506 47.6126L63.3465 45.0822H60.7222Z" stroke="white" stroke-width="4"/>
</svg>
