<svg width="70" height="71" viewBox="0 0 70 71" fill="none" xmlns="http://www.w3.org/2000/svg">
<path d="M12.7573 44.7444C12.7573 47.7051 10.3672 50.0952 7.4065 50.0952C4.44584 50.0952 2.05566 47.7051 2.05566 44.7444C2.05566 41.7837 4.44584 39.3936 7.4065 39.3936H12.7573V44.7444ZM20.4328 44.7444C20.4328 41.7837 22.8229 39.3936 25.7836 39.3936C28.7443 39.3936 31.1344 41.7837 31.1344 44.7444V63.1215C31.1344 66.0822 28.7443 68.4723 25.7836 68.4723C22.8229 68.4723 20.4328 66.0822 20.4328 63.1215V44.7444Z" stroke="white" stroke-width="4"/>
<path d="M25.7836 13.2295C22.823 13.2295 20.4328 10.8393 20.4328 7.87867C20.4328 4.918 22.823 2.52783 25.7836 2.52783C28.7443 2.52783 31.1345 4.918 31.1345 7.87867V13.2295H25.7836ZM25.7836 20.9606C28.7443 20.9606 31.1345 23.3508 31.1345 26.3115C31.1345 29.2721 28.7443 31.6623 25.7836 31.6623H7.35084C4.39017 31.6623 2 29.2721 2 26.3115C2 23.3508 4.39017 20.9606 7.35084 20.9606H25.7836Z" stroke="white" stroke-width="4"/>
<path d="M57.2426 26.3115C57.2426 23.3508 59.6327 20.9606 62.5934 20.9606C65.5541 20.9606 67.9443 23.3508 67.9443 26.3115C67.9443 29.2721 65.5541 31.6623 62.5934 31.6623H57.2426V26.3115ZM49.5672 26.3115C49.5672 29.2721 47.177 31.6623 44.2163 31.6623C41.2556 31.6623 38.8655 29.2721 38.8655 26.3115V7.87867C38.8655 4.918 41.2556 2.52783 44.2163 2.52783C47.177 2.52783 49.5672 4.918 49.5672 7.87867V26.3115Z" stroke="white" stroke-width="4"/>
<path d="M44.2163 57.7707C47.177 57.7707 49.5672 60.1608 49.5672 63.1215C49.5672 66.0822 47.177 68.4723 44.2163 68.4723C41.2556 68.4723 38.8655 66.0822 38.8655 63.1215V57.7707H44.2163ZM44.2163 50.0952C41.2556 50.0952 38.8655 47.7051 38.8655 44.7444C38.8655 41.7837 41.2556 39.3936 44.2163 39.3936H62.6491C65.6098 39.3936 67.9999 41.7837 67.9999 44.7444C67.9999 47.7051 65.6098 50.0952 62.6491 50.0952H44.2163Z" stroke="white" stroke-width="4"/>
</svg>
