<svg width="78" height="59" viewBox="0 0 78 59" fill="none" xmlns="http://www.w3.org/2000/svg">
<path d="M65.3962 5.28334C60.5414 3.05572 55.3353 1.41451 49.8919 0.474524C49.7928 0.456383 49.6938 0.501719 49.6427 0.592395C48.9732 1.78324 48.2315 3.3368 47.7122 4.55789C41.8576 3.68139 36.033 3.68139 30.2984 4.55789C29.7789 3.30966 29.0104 1.78324 28.3378 0.592395C28.2867 0.504745 28.1877 0.459408 28.0886 0.474524C22.6483 1.41151 17.4422 3.05272 12.5843 5.28334C12.5423 5.30147 12.5062 5.33172 12.4823 5.37099C2.60742 20.1238 -0.0977261 34.5141 1.22933 48.7259C1.23533 48.7954 1.27436 48.862 1.32841 48.9042C7.84357 53.6888 14.1546 56.5935 20.3485 58.5188C20.4476 58.549 20.5526 58.5128 20.6157 58.4311C22.0809 56.4303 23.3869 54.3206 24.5067 52.102C24.5728 51.9721 24.5097 51.8179 24.3747 51.7665C22.3031 50.9807 20.3304 50.0225 18.4329 48.9345C18.2829 48.8468 18.2708 48.6322 18.4089 48.5294C18.8082 48.2302 19.2076 47.9188 19.5889 47.6045C19.6579 47.5471 19.754 47.535 19.8351 47.5712C32.3009 53.2627 45.7967 53.2627 58.1154 47.5712C58.1965 47.532 58.2926 47.5441 58.3646 47.6015C58.746 47.9158 59.1453 48.2302 59.5476 48.5294C59.6857 48.6322 59.6767 48.8468 59.5266 48.9345C57.6291 50.0437 55.6565 50.9807 53.5818 51.7635C53.4468 51.8149 53.3867 51.9721 53.4528 52.102C54.5966 54.3175 55.9027 56.4272 57.3408 58.4281C57.4009 58.5128 57.5089 58.549 57.608 58.5188C63.8319 56.5935 70.1429 53.6888 76.6581 48.9042C76.7152 48.862 76.7512 48.7984 76.7572 48.7289C78.3454 32.2985 74.097 18.0263 65.4952 5.37399C65.4742 5.33172 65.4383 5.30147 65.3962 5.28334ZM26.3683 40.0724C22.6152 40.0724 19.5228 36.6268 19.5228 32.3953C19.5228 28.1637 22.5553 24.7181 26.3683 24.7181C30.2113 24.7181 33.2738 28.194 33.2137 32.3953C33.2137 36.6268 30.1812 40.0724 26.3683 40.0724ZM51.6783 40.0724C47.9254 40.0724 44.8329 36.6268 44.8329 32.3953C44.8329 28.1637 47.8653 24.7181 51.6783 24.7181C55.5214 24.7181 58.5838 28.194 58.5238 32.3953C58.5238 36.6268 55.5214 40.0724 51.6783 40.0724Z" fill="white"/>
</svg>
